<svg width="25" height="25" viewBox="0 0 25 25" fill="none" xmlns="http://www.w3.org/2000/svg">
<path d="M22.5 5.22339C23.8807 5.22339 25 6.34268 25 7.72339V9.79175C25 10.8956 24.276 11.8689 23.2188 12.1863L13.9365 14.9705C12.9994 15.2516 12.0006 15.2516 11.0635 14.9705L1.78125 12.1863C0.723998 11.8689 0 10.8956 0 9.79175V7.72339C6.44255e-07 6.34268 1.11929 5.22339 2.5 5.22339H22.5ZM12.5 8.57202C11.9822 8.57202 11.5625 8.99175 11.5625 9.50952V11.6521C11.5626 12.1698 11.9823 12.5896 12.5 12.5896C13.0177 12.5896 13.4374 12.1698 13.4375 11.6521V9.50952C13.4375 8.99175 13.0178 8.57202 12.5 8.57202Z" fill="#333333"/>
<path d="M24.8964 18.4381C24.8959 21.7168 22.2376 24.3754 18.9589 24.3756H6.04187C2.76296 24.3756 0.104819 21.7169 0.10437 18.4381V13.4489C0.450663 13.6757 0.831552 13.8586 1.24304 13.9821L10.5243 16.7672C11.8129 17.1538 13.1869 17.1538 14.4755 16.7672L23.7567 13.9821C24.1686 13.8585 24.5498 13.675 24.8964 13.4479V18.4381ZM24.8163 10.7272C24.538 11.4157 23.9616 11.9632 23.2186 12.1862L13.9364 14.9713C12.9994 15.2523 12.0003 15.2524 11.0634 14.9713L1.7821 12.1862C1.03884 11.9632 0.460714 11.416 0.182495 10.7272L12.4999 12.8131L24.8163 10.7272Z" fill="#333333"/>
<path d="M16.6666 5.22319V3.4375C16.6666 2.05679 15.5474 0.9375 14.1666 0.9375H10.8333C9.4526 0.9375 8.33331 2.05679 8.33331 3.4375L8.33331 5.22319" stroke="#333333" stroke-width="1.875"/>
</svg>
