<svg width="28" height="27" viewBox="0 0 28 27" fill="none" xmlns="http://www.w3.org/2000/svg">
<path d="M19.6875 0C20.3729 0 21.0352 0.0981759 21.6631 0.277344C20.8311 1.07378 20.3125 2.19485 20.3125 3.4375C20.3125 5.85375 22.2713 7.8125 24.6875 7.8125C25.4848 7.8125 26.2312 7.59726 26.875 7.22461V19.6875C26.875 23.657 23.657 26.875 19.6875 26.875H7.1875C3.21795 26.875 0 23.657 0 19.6875V7.1875C0 3.21795 3.21795 0 7.1875 0H19.6875ZM20.3047 9.29492C19.9151 8.95401 19.3234 8.99328 18.9824 9.38281L15.21 13.6943L12.1631 11.1553C11.7721 10.8295 11.1926 10.8749 10.8574 11.2578L6.48242 16.2578C6.14151 16.6474 6.18078 17.2391 6.57031 17.5801C6.95993 17.921 7.55161 17.8817 7.89258 17.4922L11.666 13.1816L14.7119 15.7197C15.0784 16.0251 15.6109 16.0047 15.9521 15.6855L16.0176 15.6172L20.3926 10.6172C20.7335 10.2276 20.6942 9.63589 20.3047 9.29492ZM23.626 1.17578C25.0135 2.08666 26.0663 3.46416 26.5615 5.08594C26.1034 5.60637 25.4354 5.9375 24.6875 5.9375C23.3068 5.9375 22.1875 4.81821 22.1875 3.4375C22.1875 2.43668 22.7765 1.57517 23.626 1.17578Z" fill="#333333"/>
<circle cx="2.5" cy="2.5" r="2.5" transform="matrix(-1 0 0 1 27.1875 0.9375)" fill="#333333"/>
</svg>
