<svg width="19" height="23" viewBox="0 0 19 23" fill="none" xmlns="http://www.w3.org/2000/svg">
<path d="M0 2.5756C0 2.51851 0.0293258 2.31491 0.417923 1.98679C0.801401 1.66299 1.42176 1.32165 2.28494 1.01337C4.00168 0.400251 6.44593 0 9.19859 0C11.9512 0 14.3955 0.400251 16.1122 1.01337C16.9754 1.32165 17.5958 1.66299 17.9793 1.98679C18.3679 2.31491 18.3972 2.51851 18.3972 2.5756C18.3972 2.6327 18.3679 2.8363 17.9793 3.16442C17.5958 3.48822 16.9754 3.82956 16.1122 4.13784C14.3955 4.75096 11.9512 5.15121 9.19859 5.15121C6.44593 5.15121 4.00168 4.75096 2.28494 4.13784C1.42176 3.82956 0.801401 3.48822 0.417923 3.16442C0.0293258 2.8363 0 2.6327 0 2.5756Z" fill="#333333"/>
<path d="M16.8548 6.21688C17.2398 6.07935 17.6083 5.92792 17.9533 5.76195C18.1554 5.66476 18.3972 5.80826 18.3972 6.03252V8.4627C18.3972 8.5198 18.3679 8.72339 17.9793 9.05152C17.5958 9.37532 16.9754 9.71665 16.1122 10.0249C14.3955 10.6381 11.9512 11.0383 9.19859 11.0383C6.44593 11.0383 4.00168 10.6381 2.28494 10.0249C1.42176 9.71665 0.801401 9.37532 0.417923 9.05152C0.0293258 8.72339 0 8.5198 0 8.4627V6.03252C0 5.80826 0.241731 5.66476 0.443834 5.76195C0.788926 5.92792 1.15733 6.07935 1.54242 6.21688C3.55441 6.93545 6.26138 7.35887 9.19859 7.35887C12.1358 7.35887 14.8428 6.93545 16.8548 6.21688Z" fill="#333333"/>
<path d="M16.8548 12.104C17.2398 11.9664 17.6082 11.815 17.9533 11.6491C18.1554 11.5519 18.3972 11.6954 18.3972 11.9196V14.3498C18.3972 14.4069 18.3679 14.6105 17.9793 14.9386C17.5958 15.2624 16.9754 15.6038 16.1122 15.912C14.3955 16.5252 11.9512 16.9254 9.19859 16.9254C6.44593 16.9254 4.00168 16.5252 2.28494 15.912C1.42176 15.6038 0.801401 15.2624 0.417923 14.9386C0.0293258 14.6105 0 14.4069 0 14.3498V11.9196C0 11.6954 0.241732 11.5519 0.443835 11.6491C0.788926 11.815 1.15733 11.9664 1.54242 12.104C3.55441 12.8225 6.26138 13.246 9.19859 13.246C12.1358 13.246 14.8428 12.8225 16.8548 12.104Z" fill="#333333"/>
<path d="M16.8548 17.9911C17.2398 17.8535 17.6082 17.7021 17.9533 17.5361C18.1554 17.439 18.3972 17.5825 18.3972 17.8067V20.2369C18.3972 20.294 18.3679 20.4976 17.9793 20.8257C17.5958 21.1495 16.9754 21.4908 16.1122 21.7991C14.3955 22.4123 11.9512 22.8125 9.19859 22.8125C6.44593 22.8125 4.00168 22.4123 2.28494 21.7991C1.42176 21.4908 0.801401 21.1495 0.417923 20.8257C0.0293258 20.4976 0 20.294 0 20.2369V17.8067C0 17.5825 0.241732 17.439 0.443835 17.5361C0.788926 17.7021 1.15733 17.8535 1.54242 17.9911C3.55441 18.7096 6.26138 19.1331 9.19859 19.1331C12.1358 19.1331 14.8428 18.7096 16.8548 17.9911Z" fill="#333333"/>
</svg>
