<svg width="25" height="14" viewBox="0 0 25 14" fill="none" xmlns="http://www.w3.org/2000/svg">
<path d="M24.792 7.71094C24.7915 10.9896 22.1333 13.6483 18.8545 13.6484H5.9375C2.65859 13.6484 0.000448389 10.9897 0 7.71094V2.72168C0.346292 2.94855 0.727181 3.13144 1.13867 3.25488L10.4199 6.04004C11.7085 6.42661 13.0825 6.42658 14.3711 6.04004L23.6523 3.25488C24.0642 3.13132 24.4454 2.94787 24.792 2.7207V7.71094ZM24.7119 0C24.4337 0.688499 23.8572 1.23599 23.1143 1.45898L13.832 4.24414C12.895 4.52515 11.896 4.5252 10.959 4.24414L1.67773 1.45898C0.934469 1.23601 0.356343 0.688796 0.078125 0L12.3955 2.08594L24.7119 0Z" fill="#333333"/>
</svg>
